<svg width="67" height="68" viewBox="0 0 67 68" fill="none" xmlns="http://www.w3.org/2000/svg">
<path d="M56.7958 35.9475C58.0448 31.2235 57.7052 26.2204 55.8288 21.7091L57.922 26.7188C59.7812 31.1914 60.1307 36.1482 58.9174 40.8372L56.887 35.9778L56.7958 35.9475Z" fill="#E2A460"/>
<path d="M56.8867 35.9777L58.9171 40.837C58.3917 42.9342 57.5846 44.9508 56.5181 46.8316L54.4563 41.8968L54.3937 41.8641C55.4546 40.0077 56.2622 38.0176 56.7955 35.9473L56.8867 35.9777Z" fill="#F7B830"/>
<path d="M23.3789 9.76845C36.2874 4.37498 50.8187 9.71923 55.8284 21.7092C57.7047 26.2205 58.0444 31.2236 56.7954 35.9476C56.2621 38.0178 55.4544 40.0079 54.3936 41.8643C53.5332 43.4061 52.5093 44.8501 51.3383 46.1711C50.0648 47.6193 48.6367 48.9233 47.0787 50.0598C43.6172 52.5784 39.6136 54.2511 35.3893 54.944C33.4859 55.2537 31.5546 55.3534 29.6293 55.2417C27.8669 55.1463 26.1197 54.8601 24.4181 54.3888C22.3519 53.8389 20.3685 53.0151 18.5209 51.9396C14.2823 49.5085 10.9616 45.751 9.07055 41.2457C4.06086 29.2558 10.4704 15.1619 23.3789 9.76845V9.76845Z" fill="#F9E7AB"/>
<path d="M54.4565 41.8968L56.5184 46.8316C55.6512 48.3848 54.6182 49.8389 53.4366 51.1691L53.4215 51.1558L51.3387 46.1709C52.5097 44.8499 53.5336 43.4059 54.394 41.8641L54.4565 41.8968Z" fill="#E2A460"/>
<path d="M53.4219 51.1561L53.4371 51.1694C52.1725 52.6138 50.7524 53.914 49.2026 55.0471L49.1099 54.9192L47.0795 50.0599C48.6375 48.9234 50.0656 47.6194 51.3391 46.1712L53.4219 51.1561Z" fill="#F7B830"/>
<path d="M49.2022 55.0467C47.4699 56.3126 45.5937 57.3695 43.6136 58.1958L41.5204 53.1861C43.4903 52.3673 45.3564 51.3175 47.0791 50.0595L49.1094 54.9188L49.2022 55.0467Z" fill="#E2A460"/>
<path d="M41.5204 53.1865L43.6136 58.1963C41.6341 59.0243 39.5642 59.6162 37.4458 59.9592L37.42 59.8034L35.3896 54.944C37.4952 54.6025 39.5535 54.0126 41.5204 53.1865Z" fill="#F7B830"/>
<path d="M35.3902 54.9436L37.4205 59.8029L37.4464 59.9588C35.5511 60.2651 33.6282 60.3617 31.7119 60.2463L31.713 60.2262L29.6302 55.2413C31.5555 55.353 33.4868 55.2533 35.3902 54.9436Z" fill="#E2A460"/>
<path d="M24.4185 54.3884C26.1201 54.8598 27.8673 55.1459 29.6297 55.2414L31.7125 60.2263L31.7113 60.2464C29.9355 60.1484 28.175 59.8616 26.4598 59.3907L24.3979 54.4559L24.4185 54.3884Z" fill="#F7B830"/>
<path d="M18.5215 51.9392C20.3691 53.0146 22.3525 53.8385 24.4187 54.3884L24.3981 54.4559L26.46 59.3906C24.3725 58.8277 22.3705 57.9847 20.5093 56.8847L18.4789 52.0254L18.5215 51.9392Z" fill="#E2A460"/>
<path d="M9.0708 41.2457C10.9618 45.7509 14.2825 49.5084 18.5211 51.9395L18.4786 52.0258L20.509 56.8851C16.3204 54.4532 13.0395 50.7212 11.164 46.2555L9.0708 41.2457Z" fill="#F7B830"/>
<path d="M50.8194 23.8021C46.9659 14.5792 35.618 10.539 25.4729 14.7779C15.3278 19.0168 10.2276 29.9293 14.0811 39.1522C17.9347 48.3751 29.2825 52.4152 39.4276 48.1764C49.5727 43.9375 54.673 33.025 50.8194 23.8021Z" fill="#F7B830"/>
<path d="M48.016 36.4761L46.3658 35.7357C46.9616 34.4189 47.3467 33.0163 47.5059 31.5797L49.3043 31.7717C49.1262 33.3981 48.6913 34.9863 48.016 36.4761Z" fill="#F9E7AB"/>
<path d="M38.3798 45.6717C29.6319 49.3268 19.8551 45.9328 16.5848 38.1058C13.3145 30.2789 17.7704 20.9381 26.5183 17.283C35.2662 13.6279 45.043 17.0219 48.3133 24.8489L46.6434 25.5466C43.7579 18.6407 35.043 15.6826 27.2161 18.9529C19.3891 22.2232 15.3692 30.5021 18.2547 37.4081C21.1402 44.3141 29.8551 47.2721 37.6821 44.0018C40.4731 42.8514 42.9013 40.9692 44.7102 38.5526L46.1653 39.6307C44.1616 42.3087 41.4719 44.3961 38.3798 45.6717Z" fill="#F9E7AB"/>
</svg>
