<?xml version="1.0" encoding="utf-8"?><svg xmlns="http://www.w3.org/2000/svg" xmlns:xlink="http://www.w3.org/1999/xlink"><symbol fill="none" viewBox="0 0 57 57" id="ico-name" xmlns="http://www.w3.org/2000/svg"><circle cx="28.5" cy="28.5" r="28.5" fill="#F6F7FA"/><path fill-rule="evenodd" clip-rule="evenodd" d="M23.866 26.341h6.147v3.258h-6.147v6.865h3.877c1.535 0 2.79-.207 3.768-.623.977-.414 1.744-.989 2.301-1.724a6.27 6.27 0 001.134-2.586c.206-1.057.306-2.132.3-3.21a16.25 16.25 0 00-.3-3.208 6.263 6.263 0 00-1.134-2.587c-.557-.735-1.325-1.31-2.301-1.724-.978-.416-2.233-.623-3.768-.623h-3.877v6.163-.001zm-3.942 3.258h-2.111v-3.257h2.111v-9.42h9.332c1.725 0 3.217.3 4.478.893 1.26.597 2.29 1.411 3.09 2.444.797 1.032 1.391 2.24 1.78 3.624.39 1.384.583 2.864.583 4.439.01 1.5-.187 2.993-.584 4.439-.388 1.382-.982 2.591-1.781 3.623-.798 1.033-1.827 1.847-3.088 2.444-1.261.596-2.755.893-4.478.893h-9.332V29.6z" fill="#C3A634"/></symbol></svg>